<svg xmlns="http://www.w3.org/2000/svg" width="760" height="330" viewBox="0 0 760 330"><defs><marker id="arrow" markerWidth="10" markerHeight="8" refX="9" refY="4" orient="auto"><path d="M0,0 L10,4 L0,8 z" fill="#1f4e96"/></marker></defs><style>text{font-family:Arial,Helvetica,sans-serif;fill:#222}</style>
<text x="20" y="25" font-size="16">Low-resource sarcasm F1</text>
<line x1="70" y1="265" x2="670" y2="265" stroke="#333"/>
<line x1="70" y1="45" x2="70" y2="265" stroke="#333"/>
<polyline points="70.0,140.6 220.0,141.3 370.0,55.6 520.0,56.0 670.0,55.1" fill="none" stroke="#5b8ec9" stroke-width="2"/>
<circle cx="70.0" cy="140.6" r="3" fill="#5b8ec9"/>
<circle cx="220.0" cy="141.3" r="3" fill="#5b8ec9"/>
<circle cx="370.0" cy="55.6" r="3" fill="#5b8ec9"/>
<circle cx="520.0" cy="56.0" r="3" fill="#5b8ec9"/>
<circle cx="670.0" cy="55.1" r="3" fill="#5b8ec9"/>
<rect x="690" y="45" width="10" height="10" fill="#5b8ec9"/>
<text x="705" y="54" font-size="10">PhoBERT fine-tune</text>
<polyline points="70.0,135.2 220.0,131.0 370.0,140.6 520.0,60.6 670.0,60.2" fill="none" stroke="#7aa17a" stroke-width="2"/>
<circle cx="70.0" cy="135.2" r="3" fill="#7aa17a"/>
<circle cx="220.0" cy="131.0" r="3" fill="#7aa17a"/>
<circle cx="370.0" cy="140.6" r="3" fill="#7aa17a"/>
<circle cx="520.0" cy="60.6" r="3" fill="#7aa17a"/>
<circle cx="670.0" cy="60.2" r="3" fill="#7aa17a"/>
<rect x="690" y="63" width="10" height="10" fill="#7aa17a"/>
<text x="705" y="72" font-size="10">ViPragSent (ours)</text>
<text x="70.0" y="285" text-anchor="middle" font-size="10">64</text>
<text x="220.0" y="285" text-anchor="middle" font-size="10">128</text>
<text x="370.0" y="285" text-anchor="middle" font-size="10">256</text>
<text x="520.0" y="285" text-anchor="middle" font-size="10">512</text>
<text x="670.0" y="285" text-anchor="middle" font-size="10">1024</text>
</svg>